<svg width="627" height="519" viewBox="0 0 223 48.35" xmlns="http://www.w3.org/2000/svg" xmlns:xlink="http://www.w3.org/1999/xlink">
<g id="graph0" class="graph" transform="translate(4,44.349999237060544) scale(1)">
<title>finite_state_machine</title>
<polygon fill="white" stroke="transparent" points="-4,4 -4,-44.35 219,-44.35 219,4 -4,4"/>
<!-- 0 -->
<g id="node1" class="node">
<title>1</title>
<ellipse fill="none" stroke="black" cx="18" cy="-22.35" rx="18" ry="18"/>
<text text-anchor="middle" x="18" y="-18.15" font-family="Helvetica,Arial,sans-serif" font-size="14.00">1</text>
</g>
<!-- 2 -->
<g id="node2" class="node">
<title>2</title>
<ellipse fill="none" stroke="black" cx="107.5" cy="-22.35" rx="18" ry="18"/>
<text text-anchor="middle" x="107.5" y="-18.15" font-family="Helvetica,Arial,sans-serif" font-size="14.00">2</text>
</g>
<!-- 0&#45;&gt;2 -->
<g id="edge1" class="edge">
<title>1-&gt;2</title>
<path fill="none" stroke="black" d="M36.29,-22.35C48.51,-22.35 65.15,-22.35 79.16,-22.35"/>
<polygon fill="black" stroke="black" points="79.25,-25.85 89.25,-22.35 79.25,-18.85 79.25,-25.85"/>
<text text-anchor="middle" x="62.75" y="-26.55" font-family="Helvetica,Arial,sans-serif" font-size="14.00">1</text>
</g>
<!-- 2&#45;&gt;1 -->
<g id="edge2" class="edge">
<title>2-&gt;1</title>
<path fill="none" stroke="black" d="M92.65,-11.78C86.51,-7.73 79,-3.6 71.5,-1.55 64,0.52 61.5,0.52 54,-1.55 49.78,-2.7 45.56,-4.52 41.58,-6.6"/>
<polygon fill="black" stroke="black" points="39.67,-3.67 32.85,-11.78 43.24,-9.69 39.67,-3.67"/>
<text text-anchor="middle" x="62.75" y="-5.55" font-family="Helvetica,Arial,sans-serif" font-size="14.00">0.1</text>
</g>
<!-- 3 -->
<g id="node3" class="node">
<title>3</title>
<ellipse fill="none" stroke="black" cx="197" cy="-22.35" rx="18" ry="18"/>
<text text-anchor="middle" x="197" y="-18.15" font-family="Helvetica,Arial,sans-serif" font-size="14.00">3</text>
</g>
<!-- 2&#45;&gt;3 -->
<g id="edge3" class="edge">
<title>2-&gt;3</title>
<path fill="none" stroke="black" d="M125.79,-22.35C138.01,-22.35 154.65,-22.35 168.66,-22.35"/>
<polygon fill="black" stroke="black" points="168.75,-25.85 178.75,-22.35 168.75,-18.85 168.75,-25.85"/>
<text text-anchor="middle" x="152.25" y="-26.55" font-family="Helvetica,Arial,sans-serif" font-size="14.00">0.9</text>
</g>
<!-- 3&#45;&gt;2 -->
<g id="edge4" class="edge">
<title>3-&gt;2</title>
<path fill="none" stroke="black" d="M182.15,-11.78C176.01,-7.73 168.5,-3.6 161,-1.55 153.5,0.52 151,0.52 143.5,-1.55 139.28,-2.7 135.06,-4.52 131.08,-6.6"/>
<polygon fill="black" stroke="black" points="129.17,-3.67 122.35,-11.78 132.74,-9.69 129.17,-3.67"/>
<text text-anchor="middle" x="152.25" y="-5.550000000000001" font-family="Helvetica,Arial,sans-serif" font-size="14.00">1</text>
</g>
</g>
</svg>